<mxfile host="app.diagrams.net" agent="Mozilla/5.0 (Windows NT 10.0; Win64; x64) AppleWebKit/537.36 (KHTML, like Gecko) Chrome/128.0.0.0 Safari/537.36 Edg/128.0.0.0" version="24.7.14">
  <diagram name="Page-1" id="XuFszPkIzLkQDjed5paN">
    <mxGraphModel dx="1183" dy="636" grid="1" gridSize="10" guides="1" tooltips="1" connect="1" arrows="1" fold="1" page="1" pageScale="1" pageWidth="827" pageHeight="1169" math="0" shadow="0">
      <root>
        <mxCell id="0" />
        <mxCell id="1" parent="0" />
        <mxCell id="DCOD-k3t96hwDnGWMK_w-19" value="S" style="edgeStyle=orthogonalEdgeStyle;rounded=0;orthogonalLoop=1;jettySize=auto;html=1;" edge="1" parent="1" source="DCOD-k3t96hwDnGWMK_w-1" target="DCOD-k3t96hwDnGWMK_w-4">
          <mxGeometry relative="1" as="geometry">
            <mxPoint x="100" y="600" as="targetPoint" />
            <Array as="points">
              <mxPoint x="90" y="710" />
            </Array>
          </mxGeometry>
        </mxCell>
        <mxCell id="DCOD-k3t96hwDnGWMK_w-1" value="Verruimen van de opslag" style="rounded=1;whiteSpace=wrap;html=1;" vertex="1" parent="1">
          <mxGeometry x="140" y="680" width="120" height="60" as="geometry" />
        </mxCell>
        <mxCell id="DCOD-k3t96hwDnGWMK_w-21" style="edgeStyle=orthogonalEdgeStyle;rounded=0;orthogonalLoop=1;jettySize=auto;html=1;" edge="1" parent="1" source="DCOD-k3t96hwDnGWMK_w-2" target="DCOD-k3t96hwDnGWMK_w-8">
          <mxGeometry relative="1" as="geometry" />
        </mxCell>
        <mxCell id="DCOD-k3t96hwDnGWMK_w-2" value="Afname druk op de planning" style="rounded=1;whiteSpace=wrap;html=1;" vertex="1" parent="1">
          <mxGeometry x="310" y="260" width="120" height="60" as="geometry" />
        </mxCell>
        <mxCell id="DCOD-k3t96hwDnGWMK_w-17" value="O" style="edgeStyle=orthogonalEdgeStyle;rounded=0;orthogonalLoop=1;jettySize=auto;html=1;" edge="1" parent="1" source="DCOD-k3t96hwDnGWMK_w-3" target="DCOD-k3t96hwDnGWMK_w-1">
          <mxGeometry relative="1" as="geometry" />
        </mxCell>
        <mxCell id="DCOD-k3t96hwDnGWMK_w-3" value="Toename focus op productie kosten" style="rounded=1;whiteSpace=wrap;html=1;" vertex="1" parent="1">
          <mxGeometry x="330" y="680" width="120" height="60" as="geometry" />
        </mxCell>
        <mxCell id="DCOD-k3t96hwDnGWMK_w-4" value="Toename druk op totaal productie" style="rounded=1;whiteSpace=wrap;html=1;" vertex="1" parent="1">
          <mxGeometry x="30" y="480" width="120" height="60" as="geometry" />
        </mxCell>
        <mxCell id="DCOD-k3t96hwDnGWMK_w-12" value="S" style="edgeStyle=orthogonalEdgeStyle;rounded=0;orthogonalLoop=1;jettySize=auto;html=1;entryX=0;entryY=0.5;entryDx=0;entryDy=0;" edge="1" parent="1" source="DCOD-k3t96hwDnGWMK_w-5" target="DCOD-k3t96hwDnGWMK_w-2">
          <mxGeometry relative="1" as="geometry" />
        </mxCell>
        <mxCell id="DCOD-k3t96hwDnGWMK_w-5" value="Meer standaardplanning optimale batches" style="rounded=1;whiteSpace=wrap;html=1;" vertex="1" parent="1">
          <mxGeometry x="100" y="340" width="120" height="60" as="geometry" />
        </mxCell>
        <mxCell id="DCOD-k3t96hwDnGWMK_w-18" style="edgeStyle=orthogonalEdgeStyle;rounded=0;orthogonalLoop=1;jettySize=auto;html=1;" edge="1" parent="1" source="DCOD-k3t96hwDnGWMK_w-6" target="DCOD-k3t96hwDnGWMK_w-7">
          <mxGeometry relative="1" as="geometry" />
        </mxCell>
        <mxCell id="DCOD-k3t96hwDnGWMK_w-22" value="O" style="edgeLabel;html=1;align=center;verticalAlign=middle;resizable=0;points=[];" vertex="1" connectable="0" parent="DCOD-k3t96hwDnGWMK_w-18">
          <mxGeometry x="0.169" y="2" relative="1" as="geometry">
            <mxPoint as="offset" />
          </mxGeometry>
        </mxCell>
        <mxCell id="DCOD-k3t96hwDnGWMK_w-6" value="Vertrek initiatiefrijk personeel" style="rounded=1;whiteSpace=wrap;html=1;" vertex="1" parent="1">
          <mxGeometry x="660" y="584.5" width="120" height="60" as="geometry" />
        </mxCell>
        <mxCell id="DCOD-k3t96hwDnGWMK_w-20" value="O" style="edgeStyle=orthogonalEdgeStyle;rounded=0;orthogonalLoop=1;jettySize=auto;html=1;" edge="1" parent="1" source="DCOD-k3t96hwDnGWMK_w-7" target="DCOD-k3t96hwDnGWMK_w-3">
          <mxGeometry relative="1" as="geometry" />
        </mxCell>
        <mxCell id="DCOD-k3t96hwDnGWMK_w-7" value="Afname van kennis en productie" style="rounded=1;whiteSpace=wrap;html=1;" vertex="1" parent="1">
          <mxGeometry x="560" y="680" width="120" height="60" as="geometry" />
        </mxCell>
        <mxCell id="DCOD-k3t96hwDnGWMK_w-10" value="S" style="edgeStyle=orthogonalEdgeStyle;rounded=0;orthogonalLoop=1;jettySize=auto;html=1;" edge="1" parent="1" source="DCOD-k3t96hwDnGWMK_w-8" target="DCOD-k3t96hwDnGWMK_w-9">
          <mxGeometry relative="1" as="geometry" />
        </mxCell>
        <mxCell id="DCOD-k3t96hwDnGWMK_w-8" value="Toename overschotten" style="rounded=1;whiteSpace=wrap;html=1;" vertex="1" parent="1">
          <mxGeometry x="490" y="320" width="120" height="60" as="geometry" />
        </mxCell>
        <mxCell id="DCOD-k3t96hwDnGWMK_w-16" value="O" style="edgeStyle=orthogonalEdgeStyle;rounded=0;orthogonalLoop=1;jettySize=auto;html=1;" edge="1" parent="1" source="DCOD-k3t96hwDnGWMK_w-9" target="DCOD-k3t96hwDnGWMK_w-6">
          <mxGeometry relative="1" as="geometry" />
        </mxCell>
        <mxCell id="DCOD-k3t96hwDnGWMK_w-9" value="Afname totaal rendement" style="rounded=1;whiteSpace=wrap;html=1;" vertex="1" parent="1">
          <mxGeometry x="590" y="470" width="120" height="60" as="geometry" />
        </mxCell>
        <mxCell id="DCOD-k3t96hwDnGWMK_w-15" value="S" style="edgeStyle=orthogonalEdgeStyle;rounded=0;orthogonalLoop=1;jettySize=auto;html=1;entryX=0.06;entryY=0.604;entryDx=0;entryDy=0;entryPerimeter=0;" edge="1" parent="1" source="DCOD-k3t96hwDnGWMK_w-4" target="DCOD-k3t96hwDnGWMK_w-5">
          <mxGeometry relative="1" as="geometry" />
        </mxCell>
      </root>
    </mxGraphModel>
  </diagram>
</mxfile>
